<svg width="22" height="22" viewBox="0 0 22 22" fill="none" xmlns="http://www.w3.org/2000/svg">
<path fill-rule="evenodd" clip-rule="evenodd" d="M2.75 6.23331V6.23331C2.75 6.78331 3.025 7.24165 3.48333 7.60831L8.98333 11.3666C10.2667 12.1916 11.825 12.1916 13.1083 11.3666L18.6083 7.69998C18.975 7.24165 19.25 6.78331 19.25 6.23331V6.23331C19.25 5.31665 18.5167 4.58331 17.6 4.58331H4.4C3.48333 4.58331 2.75 5.31665 2.75 6.23331Z" stroke="white" stroke-width="1.5" stroke-linecap="round" stroke-linejoin="round"/>
<path d="M2.75 6.41663V15.5833C2.75 16.5916 3.575 17.4166 4.58333 17.4166H17.4167C18.425 17.4166 19.25 16.5916 19.25 15.5833V6.41663" stroke="white" stroke-width="1.5" stroke-linecap="round" stroke-linejoin="round"/>
<path d="M3.28894 16.8777L8.87511 11.2915" stroke="white" stroke-width="1.5" stroke-linecap="round" stroke-linejoin="round"/>
<path d="M13.1633 11.33L18.711 16.8776" stroke="white" stroke-width="1.5" stroke-linecap="round" stroke-linejoin="round"/>
</svg>
