<svg width="24" height="24" viewBox="0 0 24 24" fill="none" xmlns="http://www.w3.org/2000/svg">
<path d="M18.7197 12.5069V5.79744" stroke="#F5821F" stroke-width="1.5" stroke-linecap="round" stroke-linejoin="round"/>
<path d="M13.9199 16.3469H4.3199C3.2591 16.3469 2.3999 15.4877 2.3999 14.4269V5.78688" stroke="#F5821F" stroke-width="1.5" stroke-linecap="round" stroke-linejoin="round"/>
<path fill-rule="evenodd" clip-rule="evenodd" d="M16.7893 3.86688H4.33046C3.2639 3.86688 2.3999 4.73088 2.3999 5.79744V5.79744C2.3999 6.43776 2.71766 7.03584 3.24758 7.39488L8.3903 10.8806C9.7007 11.7686 11.421 11.7686 12.7314 10.8806L17.8732 7.39584C18.4021 7.0368 18.7199 6.43776 18.7199 5.7984V5.79744C18.7199 4.73088 17.8559 3.86688 16.7893 3.86688V3.86688Z" stroke="#F5821F" stroke-width="1.5" stroke-linecap="round" stroke-linejoin="round"/>
<path d="M20.4748 13.632C21.9743 15.1315 21.9743 17.5632 20.4748 19.0627C18.9753 20.5622 16.5436 20.5622 15.0441 19.0627C13.5446 17.5632 13.5446 15.1315 15.0441 13.632C16.5436 12.1325 18.9753 12.1325 20.4748 13.632" stroke="#F5821F" stroke-width="1.5" stroke-linecap="round" stroke-linejoin="round"/>
<path d="M19.2527 15.6L17.3855 17.4672L16.2661 16.3469" stroke="#F5821F" stroke-width="1.5" stroke-linecap="round" stroke-linejoin="round"/>
</svg>
