<svg width="22" height="22" viewBox="0 0 22 22" fill="none" xmlns="http://www.w3.org/2000/svg">
<path fill-rule="evenodd" clip-rule="evenodd" d="M16.687 5.28184C15.1781 3.77209 13.1715 2.93976 11.0339 2.93884C6.62747 2.93884 3.04238 6.52209 3.04147 10.9267C3.03963 12.3283 3.40722 13.706 4.10755 14.9206L2.97363 19.0603L7.21047 17.9493C8.38288 18.5873 9.69555 18.9218 11.0302 18.9218H11.0339C15.4385 18.9218 19.0235 15.3377 19.0254 10.9331C19.0263 8.79909 18.1958 6.79251 16.687 5.28184Z" stroke-width="1.5" stroke-linecap="round" stroke-linejoin="round"/>
<path d="M12.0038 12.43L12.376 12.0606C12.7179 11.7215 13.2587 11.6784 13.6529 11.9552C14.0342 12.2229 14.3789 12.463 14.6997 12.6867C15.2094 13.0405 15.2708 13.7665 14.8317 14.2047L14.5026 14.5338" stroke-width="1.5" stroke-linecap="round" stroke-linejoin="round"/>
<path d="M7.46631 7.49742L7.79539 7.16834C8.23356 6.73017 8.95956 6.79159 9.31339 7.30034C9.53614 7.62117 9.77631 7.96584 10.0449 8.34717C10.3217 8.74134 10.2796 9.28217 9.93948 9.62409L9.57006 9.99626" stroke-width="1.5" stroke-linecap="round" stroke-linejoin="round"/>
<path d="M14.5027 14.5338C13.1451 15.885 10.8635 14.7373 9.06226 12.9351" stroke-width="1.5" stroke-linecap="round" stroke-linejoin="round"/>
<path d="M9.06406 12.9379C7.26281 11.1357 6.11514 8.85502 7.46631 7.49744" stroke-width="1.5" stroke-linecap="round" stroke-linejoin="round"/>
<path d="M9.57007 9.99628C9.86249 10.4574 10.2374 10.9139 10.6609 11.3374L10.6627 11.3392C11.0862 11.7627 11.5427 12.1376 12.0038 12.43" stroke-width="1.5" stroke-linecap="round" stroke-linejoin="round"/>
</svg>
