<?xml version="1.0" encoding="UTF-8"?><!DOCTYPE svg PUBLIC "-//W3C//DTD SVG 1.1//EN" "http://www.w3.org/Graphics/SVG/1.1/DTD/svg11.dtd"><svg xmlns="http://www.w3.org/2000/svg"><defs><clipPath id="a"><path d="M0 0h23v23H0z"/></clipPath></defs><symbol id="arrow" viewBox="0 0 10 6"><path d="M1 1l4 4 4-4" stroke="#F5821F" stroke-width="1.5" stroke-linecap="round" stroke-linejoin="round"/></symbol><symbol id="arrow2" viewBox="0 0 24 24"><path d="M16.95 7.05l-9.9 9.9M16.95 14.123V7.05l-7.072.001"/></symbol><symbol id="check-circle-duotone" viewBox="0 0 23 23"><g clip-path="url(#a)"><path d="M11.5 20.125a8.625 8.625 0 1 0 0-17.25 8.625 8.625 0 0 0 0 17.25z"/><path d="M15.453 9.344l-5.274 5.031-2.632-2.516" stroke="#333" stroke-width="1.438" stroke-linecap="round" stroke-linejoin="round"/></g></symbol><symbol id="info" viewBox="0 0 24 24"><g data-name="Layer 2"><g data-name="info"><path d="M12 2a10 10 0 1 0 10 10A10 10 0 0 0 12 2zm0 18a8 8 0 1 1 8-8 8 8 0 0 1-8 8z"/><circle cx="12" cy="8" r="1"/><path d="M12 10a1 1 0 0 0-1 1v5a1 1 0 0 0 2 0v-5a1 1 0 0 0-1-1z"/></g></g></symbol><symbol id="mail" viewBox="0 0 22 22"><path clip-rule="evenodd" d="M2.75 6.233c0 .55.275 1.009.733 1.375l5.5 3.759a3.747 3.747 0 0 0 4.125 0l5.5-3.667c.367-.458.642-.917.642-1.467 0-.916-.733-1.65-1.65-1.65H4.4c-.917 0-1.65.734-1.65 1.65z" stroke="#fff" stroke-width="1.5" stroke-linecap="round" stroke-linejoin="round"/><path d="M2.75 6.417v9.166c0 1.009.825 1.834 1.833 1.834h12.834a1.839 1.839 0 0 0 1.833-1.834V6.417M3.289 16.878l5.586-5.587M13.163 11.33l5.548 5.548" stroke="#fff" stroke-width="1.5" stroke-linecap="round" stroke-linejoin="round"/></symbol><symbol id="mail2" viewBox="0 0 24 24"><path d="M18.72 12.507v-6.71M13.92 16.347h-9.6a1.92 1.92 0 0 1-1.92-1.92v-8.64" stroke="#F5821F" stroke-width="1.5" stroke-linecap="round" stroke-linejoin="round"/><path clip-rule="evenodd" d="M16.79 3.867H4.33a1.93 1.93 0 1 0-1.083 3.528L8.39 10.88a3.87 3.87 0 0 0 4.341 0l5.142-3.485a1.93 1.93 0 0 0-1.084-3.529z" stroke="#F5821F" stroke-width="1.5" stroke-linecap="round" stroke-linejoin="round"/><path d="M20.475 13.632a3.84 3.84 0 1 1-5.432 5.43 3.84 3.84 0 0 1 5.432-5.43" stroke="#F5821F" stroke-width="1.5" stroke-linecap="round" stroke-linejoin="round"/><path d="M19.253 15.6l-1.867 1.867-1.12-1.12" stroke="#F5821F" stroke-width="1.5" stroke-linecap="round" stroke-linejoin="round"/></symbol><symbol id="phone" viewBox="0 0 24 25"><path clip-rule="evenodd" d="M18.965 17.11l-1.173-1.173a1.5 1.5 0 0 0-2.121 0l-.922.922a.71.71 0 0 1-.784.158c-1.336-.585-2.656-1.472-3.833-2.649a12.645 12.645 0 0 1-2.642-3.817.733.733 0 0 1 .162-.811l.826-.826c.671-.671.671-1.62.085-2.206L7.39 5.535a2 2 0 0 0-2.828 0l-.652.651c-.741.741-1.05 1.81-.85 2.87.494 2.613 2.012 5.474 4.461 7.923 2.449 2.449 5.31 3.967 7.923 4.461 1.06.2 2.129-.109 2.87-.85l.651-.651a2 2 0 0 0 0-2.829z" stroke="#F5821F" stroke-width="1.5" stroke-linecap="round" stroke-linejoin="round"/><path d="M13 7.491a3.944 3.944 0 0 1 4.009 4.01M13 3.464c2.056 0 4.113.785 5.682 2.354a8.012 8.012 0 0 1 2.354 5.682" stroke="#F5821F" stroke-width="1.5" stroke-linecap="round" stroke-linejoin="round"/></symbol><symbol id="search" viewBox="0 0 24 24"><path d="M15.714 6.838a6.276 6.276 0 1 1-8.876 8.876 6.276 6.276 0 0 1 8.876-8.876M19 19l-3.29-3.29" stroke="#fff" stroke-width="1.5" stroke-linecap="round" stroke-linejoin="round"/></symbol><symbol id="whatsapp" viewBox="0 0 22 22"><path clip-rule="evenodd" d="M16.687 5.282a7.943 7.943 0 0 0-5.653-2.343c-4.407 0-7.992 3.583-7.993 7.988a7.975 7.975 0 0 0 1.067 3.994l-1.134 4.14 4.236-1.112a7.99 7.99 0 0 0 3.82.973h.004c4.404 0 7.99-3.584 7.991-7.989a7.94 7.94 0 0 0-2.338-5.651z"/><path d="M12.004 12.43l.372-.37c.342-.338.883-.382 1.277-.105.381.268.726.508 1.047.732a.991.991 0 0 1 .132 1.518l-.33.329M7.466 7.497l.33-.329a.992.992 0 0 1 1.517.132c.223.321.463.666.732 1.047a1 1 0 0 1-.106 1.277l-.369.372M14.503 14.534c-1.358 1.351-3.64.203-5.44-1.599M9.064 12.938c-1.801-1.802-2.949-4.083-1.598-5.44M9.57 9.996c.292.461.667.918 1.09 1.341l.003.002c.423.424.88.799 1.34 1.091"/></symbol></svg>