<svg width="24" height="25" viewBox="0 0 24 25" fill="none" xmlns="http://www.w3.org/2000/svg">
<path fill-rule="evenodd" clip-rule="evenodd" d="M18.965 17.11L17.792 15.937C17.206 15.351 16.256 15.351 15.671 15.937L14.749 16.859C14.543 17.065 14.231 17.134 13.965 17.017C12.629 16.432 11.309 15.545 10.132 14.368C8.96002 13.196 8.07602 11.882 7.49002 10.551C7.36802 10.276 7.43902 9.953 7.65202 9.74L8.47802 8.914C9.14902 8.243 9.14902 7.294 8.56302 6.708L7.39002 5.535C6.60902 4.754 5.34302 4.754 4.56202 5.535L3.91002 6.186C3.16902 6.927 2.86002 7.996 3.06002 9.056C3.55402 11.669 5.07202 14.53 7.52102 16.979C9.97002 19.428 12.831 20.946 15.444 21.44C16.504 21.64 17.573 21.331 18.314 20.59L18.965 19.939C19.746 19.158 19.746 17.892 18.965 17.11V17.11Z" stroke="#F5821F" stroke-width="1.5" stroke-linecap="round" stroke-linejoin="round"/>
<path d="M13 7.49128C14.031 7.47728 15.067 7.85928 15.854 8.64628C16.641 9.43328 17.023 10.4693 17.009 11.5003" stroke="#F5821F" stroke-width="1.5" stroke-linecap="round" stroke-linejoin="round"/>
<path d="M13 3.46414C15.056 3.46414 17.113 4.24914 18.682 5.81814C20.251 7.38714 21.036 9.44414 21.036 11.5001" stroke="#F5821F" stroke-width="1.5" stroke-linecap="round" stroke-linejoin="round"/>
</svg>
